<svg xmlns="http://www.w3.org/2000/svg" width="72" height="52" fill="none" viewBox="0 0 72 52">
  <path fill="#A0382F" d="M64.805 39.455a3.904 3.904 0 0 1-2.827-1.151c-.776-.776-1.16-1.719-1.15-2.827-.01-1.08.373-2.003 1.15-2.77a3.904 3.904 0 0 1 2.827-1.15c1.041 0 1.96.383 2.755 1.15.805.767 1.212 1.69 1.222 2.77a3.825 3.825 0 0 1-.582 2.017 4.285 4.285 0 0 1-1.45 1.435 3.774 3.774 0 0 1-1.945.526ZM36.15 39h-8.522L37.23 9.91h10.796L57.628 39h-8.523l-6.363-21.08h-.228L36.151 39Zm-1.59-11.477h16.022v5.909H34.56v-5.91ZM1.875 39V9.91h12.557c2.159 0 4.048.392 5.667 1.178 1.62.786 2.88 1.918 3.779 3.395.9 1.477 1.35 3.248 1.35 5.313 0 2.083-.465 3.84-1.393 5.27-.918 1.43-2.21 2.509-3.878 3.238-1.657.73-3.593 1.094-5.81 1.094h-7.5V23.26h5.91c.928 0 1.719-.113 2.372-.34.663-.237 1.17-.611 1.52-1.123.36-.511.54-1.179.54-2.002 0-.834-.18-1.511-.54-2.032-.35-.53-.857-.918-1.52-1.165-.653-.255-1.444-.383-2.372-.383H9.773V39H1.875Zm17.046-13.352L26.193 39h-8.58l-7.102-13.352h8.41Z"/>
</svg>
